HIERARCHY
ROOT Hips
{
  OFFSET 40.9192 92.6879 18.85
  CHANNELS 6 Xposition Yposition Zposition Zrotation Xrotation Yrotation
  JOINT LeftUpLeg
  {
    OFFSET 8.64259 1.95398 -2.38835
    CHANNELS 3 Zrotation Xrotation Yrotation
    JOINT LeftLeg
    {
      OFFSET 43.7702 0 0
      CHANNELS 3 Zrotation Xrotation Yrotation
      JOINT LeftFoot
      {
        OFFSET 40.6238 0 0
        CHANNELS 3 Zrotation Xrotation Yrotation
        JOINT LeftToeBase
        {
          OFFSET 12.7242 0 0
          CHANNELS 3 Zrotation Xrotation Yrotation
          End Site
          {
            OFFSET 0 0 0
          }
        }
      }
    }
  }
  JOINT RightUpLeg
  {
    OFFSET -8.2249 1.95398 -2.59336
    CHANNELS 3 Zrotation Xrotation Yrotation
    JOINT RightLeg
    {
      OFFSET 43.5653 0 0
      CHANNELS 3 Zrotation Xrotation Yrotation
      JOINT RightFoot
      {
        OFFSET 40.6238 0 0
        CHANNELS 3 Zrotation Xrotation Yrotation
        JOINT RightToeBase
        {
          OFFSET 12.7242 0 0
          CHANNELS 3 Zrotation Xrotation Yrotation
          End Site
          {
            OFFSET 0 0 0
          }
        }
      }
    }
  }
  JOINT Spine
  {
    OFFSET 0.165834 0.87714 6.61349
    CHANNELS 3 Zrotation Xrotation Yrotation
    JOINT Spine1
    {
      OFFSET 7.38963 1.71661e-005 0
      CHANNELS 3 Zrotation Xrotation Yrotation
      JOINT Spine2
      {
        OFFSET 11.9445 1.14441e-005 0
        CHANNELS 3 Zrotation Xrotation Yrotation
        JOINT Spine3
        {
          OFFSET 14.7254 4.19617e-005 0
          CHANNELS 3 Zrotation Xrotation Yrotation
          JOINT Spine4
          {
            OFFSET 10.9679 0 0
            CHANNELS 3 Zrotation Xrotation Yrotation
            JOINT RightShoulder
            {
              OFFSET 2.46616 -1.6653 3.69651
              CHANNELS 3 Zrotation Xrotation Yrotation
              JOINT RightArm
              {
                OFFSET 13.0012 0 0
                CHANNELS 3 Zrotation Xrotation Yrotation
                JOINT RightForeArm
                {
                  OFFSET 28.7848 1.52588e-005 0
                  CHANNELS 3 Zrotation Xrotation Yrotation
                  JOINT RightHand
                  {
                    OFFSET 26.5688 1.52588e-005 0
                    CHANNELS 3 Zrotation Xrotation Yrotation
                    End Site
                    {
                      OFFSET 0 0 0
                    }
                  }
                }
              }
            }
            JOINT LeftShoulder
            {
              OFFSET 2.38034 -1.29275 -3.7523
              CHANNELS 3 Zrotation Xrotation Yrotation
              JOINT LeftArm
              {
                OFFSET 16.3182 6.10351e-005 0
                CHANNELS 3 Zrotation Xrotation Yrotation
                JOINT LeftForeArm
                {
                  OFFSET 27.0901 0 0
                  CHANNELS 3 Zrotation Xrotation Yrotation
                  JOINT LeftHand
                  {
                    OFFSET 24.5451 1.52588e-005 0
                    CHANNELS 3 Zrotation Xrotation Yrotation
                    End Site
                    {
                      OFFSET 0 0 0
                    }
                  }
                }
              }
            }
            JOINT Neck
            {
              OFFSET 5.0226 -0.0266342 0
              CHANNELS 3 Zrotation Xrotation Yrotation
              JOINT Head
              {
                OFFSET 6.69363 2.86102e-005 0
                CHANNELS 3 Zrotation Xrotation Yrotation
                End Site
                {
                  OFFSET 0 0 0
                }
              }
            }
          }
        }
      }
    }
  }
}
MOTION
Frames:	9
Frame Time:	0.0416667
32.0289 95.2792 -30.1373 87.8701 -47.8532 84.4089 -172.772 -2.18704 91.4003 -50.3743 25.7627 0.0266265 31.3476 -16.3844 -13.9213 26.7957 -3.03089 10.4583 177.299 25.2923 94.1015 -21.7087 -10.709 -0.787896 52.5389 1.981 1.89909 22.1927 -0.0701268 -1.93834 -0.725033 7.86213 -89.2173 11.1549 -1.07946 1.6626 -0.516686 -1.00525 1.70848 -23.0499 -1.52919 1.26139 -3.03726 -1.52921 1.26138 92.1563 -46.744 -98.1624 37.8401 -24.7602 39.4341 -8.44611 -8.90804 -80.7183 -22.6851 0.207229 -5.96544 -91.1586 -41.8297 74.9201 -25.7975 9.42025 6.05723 14.2175 -10.9371 -116.255 33.3472 1.27065 -0.134677 14.7997 0.307297 -2.63195 -0.564072 1.01012 2.00996 
25.4167 96.7844 -36.6615 83.794 -47.9761 81.5139 -173.679 -4.06694 88.9231 -38.8016 29.2211 -0.600345 37.6971 -13.5852 -10.8548 30.8501 1.00451 8.23722 175.336 25.1991 92.7676 -7.97734 -17.4039 1.15019 45.0777 4.72036 4.33399 36.2566 0.325936 -5.85719 -0.824522 7.65952 -89.3511 11.5624 -1.33648 1.43145 -0.108731 -1.27219 1.48887 -22.6461 -1.70487 0.963606 -2.63349 -1.70488 0.963607 92.5602 -45.1012 -97.8496 39.373 -24.5938 43.1238 -9.49593 -6.73598 -83.5644 -21.3617 0.34893 -6.85092 -91.6097 -42.1374 74.2714 -24.6374 6.88695 4.51743 13.4841 -12.9036 -124.853 31.1907 1.06214 -0.552729 17.6894 0.930182 -1.78112 -2.62999 1.41004 1.78447 
18.7659 97.3373 -43.1956 79.6507 -49.87 78.6814 -173.293 -3.99486 87.4472 -29.1595 27.0204 -2.08224 44.3584 -10.0723 -7.40597 38.547 8.04201 9.45085 177.787 28.1711 92.2297 -14.0386 -18.1351 -1.70535 50.6718 2.61776 2.25276 42.6264 0.236305 -8.03903 -0.686077 7.4414 -89.4116 11.9962 -1.08643 1.29187 0.324993 -1.0285 1.33842 -22.2109 -1.42443 0.905645 -2.19827 -1.42444 0.905644 91.6949 -44.7839 -99.3343 39.3332 -23.2526 44.5008 -9.35428 -3.99778 -86.1606 -18.3561 0.531341 -8.47139 -90.5337 -42.1966 76.0393 -24.3317 9.65241 3.66896 14.3142 -15.2575 -127.58 32.1259 0.811681 -1.46473 20.0408 1.37261 -1.22282 -3.63828 1.69626 1.3093 
11.4454 96.6408 -50.032 78.3055 -52.1258 77.5398 -173.087 -1.35838 85.9745 -26.1047 24.9667 -3.35913 48.5288 -7.62942 -3.37228 41.9126 10.9949 8.11257 -179.091 31.5196 91.2365 -31.7893 -13.9936 -4.6181 57.1015 -0.088354 0.0973859 46.3007 0.156463 -8.08523 -0.379809 7.4224 -89.4176 12.0302 -0.480078 1.214 0.358796 -0.426192 1.23396 -22.1737 -0.822753 1.01362 -2.16107 -0.82275 1.01362 92.2847 -44.8306 -98.3581 36.7158 -23.2751 39.5441 -9.49718 -4.34645 -86.2232 -19.0717 0.486185 -8.03396 -91.4267 -42.2418 74.5981 -25.2552 10.3367 5.57289 12.122 -12.7296 -124.277 30.7233 0.901153 -1.03853 20.2254 1.07903 -1.43521 -3.12471 1.48351 1.6513 
4.12321 95.3018 -57.2235 82.9717 -53.0831 82.9375 -172.791 1.21197 86.5147 -29.6526 23.5759 -3.0958 56.2718 -1.37885 2.63789 47.4151 15.4326 5.26037 -178.036 30.2888 91.2743 -49.9916 -7.04905 -5.14159 58.6125 -0.949972 -0.493752 45.8581 0.118696 -8.69951 -0.194657 7.66915 -89.5805 11.5358 -0.190988 0.854478 -0.135414 -0.153208 0.862047 -22.6689 -0.438969 0.757582 -2.65622 -0.438961 0.757583 92.8101 -46.2047 -97.2212 32.0351 -23.226 31.3626 -9.78696 -5.68811 -84.3985 -19.5209 0.375056 -7.27205 -92.7088 -43.244 72.8232 -26.5053 11.7667 9.53125 12.5067 -10.2704 -114.831 32.6774 1.07018 -0.687338 17.8723 0.36012 -1.90128 -1.58131 0.911212 1.81872 
-2.94547 93.5148 -64.2065 85.1965 -53.7892 86.6667 -172.281 8.07323 87.1485 -38.3879 22.2432 -2.62805 65.8794 7.2954 7.62059 45.6222 13.8745 5.10471 -178.136 28.1618 91.3907 -64.5008 -0.991125 -4.39339 60.1455 -2.44973 -1.48253 41.5247 0.349191 -5.85698 0.0581813 7.75453 -89.8449 11.3643 0.188133 0.290261 -0.306667 0.200739 0.281683 -22.8416 0.0922141 0.333379 -2.82897 0.0922122 0.333382 92.9346 -47.0422 -96.8579 28.1163 -22.6703 23.1417 -9.74877 -5.20939 -84.6597 -18.9121 0.232969 -6.47969 -93.366 -45.6723 72.5017 -27.4161 13.8592 12.2625 12.0952 -6.3279 -103.43 34.3559 1.31645 -0.131106 16.6616 -0.186133 -1.40284 -0.457965 0.24644 1.74869 
-10.3349 91.7507 -70.3953 85.2359 -54.5942 85.3682 -172.073 16.3656 85.9417 -44.8278 19.3574 -2.61559 69.4897 11.6092 10.4207 44.0855 12.3289 3.06729 -177.611 25.0132 88.743 -75.0045 -0.305466 -4.86218 57.7236 -2.22577 -1.39307 42.2207 0.291941 -7.14699 0.320194 7.76564 -89.6692 11.3403 0.79163 0.579496 -0.330472 0.816359 0.544087 -22.8658 0.58085 0.790612 -2.85311 0.580866 0.790613 92.9362 -48.1189 -96.6529 23.9789 -22.9884 13.0438 -9.70853 -6.89934 -84.6485 -21.2967 0.169555 -5.89508 -93.3311 -46.4898 72.7957 -29.4087 15.6651 14.9755 11.8301 -3.209 -89.5373 36.913 1.94658 1.33326 17.7902 -1.31147 -1.67793 -1.79996 -0.780561 1.77182 
-17.4167 91.0597 -76.0915 90.1701 -54.5235 88.1107 -171.881 20.3541 85.3124 -46.9085 16.7152 -2.58815 69.4793 11.9698 11.4649 41.7448 10.2313 0.964078 -178.5 15.4261 86.1053 -77.1745 -0.930992 -5.61544 54.5398 -1.322 -0.811787 38.8124 0.3902 -4.60152 0.509515 8.01557 -89.5708 10.8384 1.2128 0.740263 -0.832204 1.2442 0.686153 -23.3686 0.934262 1.07053 -3.35591 0.934255 1.07053 92.5927 -46.6249 -97.4904 23.2849 -24.6421 6.15147 -10.5112 -6.11456 -88.4958 -22.9147 0.174801 -5.79872 -94.2716 -46.763 71.4331 -32.5407 17.071 22.4353 6.22148 -1.11159 -81.8709 38.5637 2.19848 1.76125 17.5547 -2.44377 -1.11439 -2.33791 -2.05913 1.08829 
-24.1379 92.3365 -81.6078 92.1902 -56.3182 89.3116 -172.002 22.654 86.1106 -41.9568 13.8059 -2.56161 66.5389 8.05857 7.34354 36.6953 6.24294 1.81808 -179.769 5.64275 84.0846 -69.7932 -1.58234 -7.30762 49.9867 0.511623 0.643842 33.183 0.317444 -3.50282 0.975007 8.01977 -89.5799 10.8293 2.1353 0.635047 -0.840029 2.1612 0.540399 -23.3849 1.84574 1.2476 -3.37228 1.84574 1.2476 92.3763 -43.2311 -98.5527 25.9505 -26.1416 2.01477 -11.591 -3.08509 -93.8699 -22.755 0.602607 -8.01888 -93.1353 -46.7281 73.1681 -37.6886 19.9568 31.8334 5.27443 -2.47004 -82.9027 38.461 2.12716 1.58249 15.8136 -3.56954 0.366153 -2.509 -3.55757 0.623949 
